<?xml version="1.0" encoding="UTF-8" standalone="no"?>
<!-- Uploaded to: SVG Repo, www.svgrepo.com, Generator: SVG Repo Mixer Tools -->

<svg
   fill="#000000"
   width="128"
   height="128"
   viewBox="0 0 5.12 5.12"
   version="1.1"
   id="svg1"
   sodipodi:docname="icon.svg"
   xml:space="preserve"
   inkscape:export-filename="..\Pictures\chunk-loading-icon.png"
   inkscape:export-xdpi="96"
   inkscape:export-ydpi="96"
   inkscape:version="1.4.3 (0d15f75, 2025-12-25)"
   xmlns:inkscape="http://www.inkscape.org/namespaces/inkscape"
   xmlns:sodipodi="http://sodipodi.sourceforge.net/DTD/sodipodi-0.dtd"
   xmlns="http://www.w3.org/2000/svg"
   xmlns:svg="http://www.w3.org/2000/svg"><defs
     id="defs1"><filter
       id="filter3205"
       inkscape:collect="always"
       x="-0.0065715269"
       y="-0.068989401"
       width="1.0131431"
       height="1.1379788"><feGaussianBlur
         id="feGaussianBlur3207"
         stdDeviation="0.69811522"
         inkscape:collect="always" /></filter><filter
       id="filter3434"
       inkscape:collect="always"
       x="-0.021619633"
       y="-0.026969808"
       width="1.0432393"
       height="1.0539396"><feGaussianBlur
         id="feGaussianBlur3436"
         stdDeviation="2.297086"
         inkscape:collect="always" /></filter><radialGradient
       id="radialGradient3532"
       gradientUnits="userSpaceOnUse"
       cy="458.79001"
       cx="107.14"
       r="8.5713997"
       inkscape:collect="always"><stop
         id="stop3234"
         style="stop-color:#f8f8f8"
         offset="0" /><stop
         id="stop3236"
         style="stop-color:#454545"
         offset="1" /></radialGradient><radialGradient
       id="radialGradient2451"
       gradientUnits="userSpaceOnUse"
       cy="240.66"
       cx="358.82001"
       gradientTransform="matrix(1.832,-0.40741,0.26112,1.1742,-686.27,124.18)"
       r="127.5"
       inkscape:collect="always"><stop
         id="stop3189"
         style="stop-color:#ffffff"
         offset="0" /><stop
         id="stop3191"
         style="stop-color:#ffffff;stop-opacity:0"
         offset="1" /></radialGradient><filter
       id="filter3434-5"
       inkscape:collect="always"
       x="-0.021619633"
       y="-0.026969808"
       width="1.0432393"
       height="1.0539396"><feGaussianBlur
         id="feGaussianBlur3436-1"
         stdDeviation="2.297086"
         inkscape:collect="always" /></filter><radialGradient
       id="radialGradient2451-7"
       gradientUnits="userSpaceOnUse"
       cy="240.66"
       cx="358.82001"
       gradientTransform="matrix(1.832,-0.40741,0.26112,1.1742,-686.27,124.18)"
       r="127.5"
       inkscape:collect="always"><stop
         id="stop3189-1"
         style="stop-color:#ffffff"
         offset="0" /><stop
         id="stop3191-1"
         style="stop-color:#ffffff;stop-opacity:0"
         offset="1" /></radialGradient><filter
       id="filter3205-5"
       inkscape:collect="always"
       x="-0.0065715269"
       y="-0.068989401"
       width="1.0131431"
       height="1.1379788"><feGaussianBlur
         id="feGaussianBlur3207-2"
         stdDeviation="0.69811522"
         inkscape:collect="always" /></filter><radialGradient
       id="radialGradient3532-7"
       gradientUnits="userSpaceOnUse"
       cy="458.79001"
       cx="107.14"
       r="8.5713997"
       inkscape:collect="always"><stop
         id="stop3234-6"
         style="stop-color:#f8f8f8"
         offset="0" /><stop
         id="stop3236-1"
         style="stop-color:#454545"
         offset="1" /></radialGradient></defs><sodipodi:namedview
     id="namedview1"
     pagecolor="#ffffff"
     bordercolor="#000000"
     borderopacity="0.25"
     inkscape:showpageshadow="2"
     inkscape:pageopacity="0.0"
     inkscape:pagecheckerboard="0"
     inkscape:deskcolor="#d1d1d1"
     inkscape:zoom="3.232"
     inkscape:cx="35.42698"
     inkscape:cy="50.433168"
     inkscape:window-width="1920"
     inkscape:window-height="1010"
     inkscape:window-x="-6"
     inkscape:window-y="713"
     inkscape:window-maximized="1"
     inkscape:current-layer="svg1"><inkscape:page
       x="0"
       y="0"
       width="5.1199999"
       height="5.1199999"
       id="page2"
       margin="0"
       bleed="0" /></sodipodi:namedview><path
     style="fill:#ffffff;stroke:#ffffff;stroke-width:0.00889259"
     d="M -0.18404581,-0.05710774 -0.1729559,5.3812874 5.3386705,5.2694438 5.2388623,-0.25283428 Z"
     id="path3" /><path
     d="M 0.28084816,0.23151195 V 4.8884879 H 4.8391517 V 0.23151195 Z M 0.69523941,0.65487343 H 2.3528044 V 2.3483194 H 0.69523941 Z m 2.07195639,0 H 4.4247607 V 2.3483194 H 2.7671958 Z M 0.69523941,2.771681 H 2.3528044 V 4.4651265 H 0.69523941 Z m 2.07195639,0 H 4.4247607 V 4.4651265 H 2.7671958 Z"
     id="path1"
     style="stroke-width:0.209428" /><path
     id="path5571"
     inkscape:connector-curvature="0"
     sodipodi:nodetypes="sccssssccsccccccccc"
     d="m 3.6082127,3.1596059 c -0.034579,0 -0.046105,0.018453 -0.069158,0.036902 L 2.8705284,4.0729367 c -0.011527,0.00923 -0.011527,0.027677 -0.011527,0.036903 0,0.046128 0.046105,0.064579 0.080684,0.064579 h 1.3370537 c 0.046105,0 0.080684,-0.018449 0.080684,-0.064579 0,-0.018449 0,-0.018449 -0.011527,-0.036903 L 3.6888975,3.1965081 c -0.023053,-0.018451 -0.046105,-0.036902 -0.080685,-0.036902 z m 0,0.1383835 0.3803687,0.5074057 h -0.09221 L 3.723476,3.6670121 3.6082127,3.8053951 3.4929496,3.6670121 3.3200546,3.8053951 H 3.2163179 Z"
     style="stroke-width:0.10312" /><path
     id="path5571-2"
     inkscape:connector-curvature="0"
     sodipodi:nodetypes="sccssssccsccccccccc"
     d="m 1.5338897,1.0282276 c -0.03458,0 -0.046105,0.018453 -0.069158,0.036902 l -0.66852649,0.876429 c -0.011526,0.00923 -0.011526,0.027676 -0.011526,0.036903 0,0.046128 0.0461052,0.064579 0.0806843,0.064579 H 2.2024172 c 0.046105,0 0.080684,-0.018449 0.080684,-0.064579 0,-0.018449 0,-0.018449 -0.011527,-0.036903 L 1.6145748,1.0651297 c -0.023053,-0.018451 -0.046105,-0.036902 -0.080685,-0.036902 z m 0,0.1383837 0.3803687,0.5074055 h -0.09221 L 1.6491532,1.5356337 1.5338897,1.6740168 1.4186268,1.5356337 1.2457317,1.6740168 H 1.1419948 Z"
     style="stroke-width:0.10312" /><g
     id="layer1"
     inkscape:label="Layer 1"
     transform="matrix(0.00491753,0,0,0.00393595,2.9241292,0.89758226)"><path
       id="path3428"
       style="fill:#000000;filter:url(#filter3434)"
       d="m 29.866,94.226 c -10.684,0 -19.281,9.274 -19.281,20.764 v 20.73 c 0,0.66 0.008,1.31 0.062,1.95 -0.056,0.61 -0.062,1.21 -0.062,1.83 v 139.34 c 0,10.97 8.92,19.8 20,19.8 h 215 c 11.08,0 20,-8.83 20,-19.8 V 139.5 c 0,-10.97 -8.92,-19.81 -20,-19.81 H 49.155 l -0.003,-4.7 c 0,-11.49 -8.597,-20.764 -19.281,-20.764 z" /><path
       id="rect2396"
       style="fill:#000000"
       d="m 27.866,90.205 c -10.684,0 -19.281,9.361 -19.281,20.965 l -2e-4,20.94 c 0,0.66 0.0079,1.33 0.0625,1.97 -0.0559,0.61 -0.0625,1.22 -0.0625,1.84 v 140.72 c 0,11.08 8.9202,20 20,20 h 215 c 11.08,0 20,-8.92 20,-20 V 135.92 c 0,-11.08 -8.92,-20 -20,-20 h -196.43 l -0.003,-4.75 c 0,-11.604 -8.597,-20.965 -19.281,-20.965 z" /><path
       id="path3185"
       style="opacity:0.22261;fill:url(#radialGradient2451)"
       d="m 27.866,90.205 c -10.684,0 -19.281,9.361 -19.281,20.965 l -2e-4,20.94 c 0,0.66 0.0079,1.33 0.0625,1.97 -0.0559,0.61 -0.0625,1.22 -0.0625,1.84 v 140.72 c 0,11.08 8.9202,20 20,20 h 215 c 11.08,0 20,-8.92 20,-20 V 135.92 c 0,-11.08 -8.92,-20 -20,-20 h -196.43 l -0.003,-4.75 c 0,-11.604 -8.597,-20.965 -19.281,-20.965 z" /><rect
       id="rect3195"
       style="fill:#717171;filter:url(#filter3205)"
       transform="matrix(0.9972,0,0,0.94118,-296.64,-22.76)"
       height="24.285999"
       width="254.96001"
       y="147.36"
       x="307.16" /><g
       id="g3209"
       transform="translate(-298.57,-32.857)"><rect
         id="rect3170"
         style="fill:#000000"
         height="22.143"
         width="254.96001"
         y="148.08"
         x="307.16" /><rect
         id="rect3174"
         style="fill:#ffffff"
         transform="matrix(1,0,-0.54213,0.8403,0,0)"
         height="26.351"
         width="33.174999"
         y="176.22"
         x="620.90997" /><rect
         id="rect3176"
         style="fill:#ffffff"
         transform="matrix(1,0,-0.54213,0.8403,0,0)"
         height="26.351"
         width="33.174999"
         y="176.22"
         x="561.97998" /><rect
         id="rect3178"
         style="fill:#ffffff"
         transform="matrix(1,0,-0.54213,0.8403,0,0)"
         height="26.351"
         width="33.174999"
         y="176.22"
         x="501.62" /><rect
         id="rect3180"
         style="fill:#ffffff"
         transform="matrix(1,0,-0.54213,0.8403,0,0)"
         height="26.351"
         width="33.174999"
         y="176.22"
         x="442.34" /></g><rect
       id="rect3228"
       style="fill:#717171;filter:url(#filter3205)"
       transform="matrix(0.9415,-0.32862,0.31015,0.8886,-329.4,66.313)"
       height="24.285999"
       width="254.96001"
       y="147.36"
       x="307.16" /><g
       id="g3216"
       transform="matrix(0.93119,-0.36452,-0.36452,-0.93119,-217.8,368.28)"><rect
         id="rect3218"
         style="fill:#000000"
         height="22.143"
         width="254.96001"
         y="148.08"
         x="307.16" /><rect
         id="rect3220"
         style="fill:#ffffff"
         transform="matrix(1,0,-0.54213,0.8403,0,0)"
         height="26.351"
         width="33.174999"
         y="176.22"
         x="620.90997" /><rect
         id="rect3222"
         style="fill:#ffffff"
         transform="matrix(1,0,-0.54213,0.8403,0,0)"
         height="26.351"
         width="33.174999"
         y="176.22"
         x="561.97998" /><rect
         id="rect3224"
         style="fill:#ffffff"
         transform="matrix(1,0,-0.54213,0.8403,0,0)"
         height="26.351"
         width="33.174999"
         y="176.22"
         x="501.62" /><rect
         id="rect3226"
         style="fill:#ffffff"
         transform="matrix(1,0,-0.54213,0.8403,0,0)"
         height="26.351"
         width="33.174999"
         y="176.22"
         x="442.34" /></g><circle
       id="path3230"
       style="fill:url(#radialGradient3532)"
       transform="matrix(0.39583,0,0,0.39583,-14.732,-79.421)"
       cx="107.14286"
       cy="458.79074"
       r="8.5714283" /><path
       id="path3262"
       style="fill:none;stroke:#ffffff;stroke-width:3"
       d="m 24.286,258.43 220.71,1.43" /><path
       id="path3272"
       style="fill:none;stroke:#ffffff;stroke-width:3"
       d="m 81.429,258.79 v 32.86" /><path
       id="path3274"
       style="fill:none;stroke:#ffffff;stroke-width:3"
       d="m 178.57,258.79 v 32.14" /><path
       style="fill:#ffffff;stroke:#ffffff;stroke-width:1.65791"
       d="m 112.86374,174.45373 v 51.70701 l 66.07008,-27.495 z"
       id="path2" /></g><g
     id="layer1-2"
     inkscape:label="Layer 1"
     transform="matrix(0.00491753,0,0,0.00393595,0.84328337,3.01176)"><path
       id="path3428-3"
       style="fill:#000000;filter:url(#filter3434-5)"
       d="m 29.866,94.226 c -10.684,0 -19.281,9.274 -19.281,20.764 v 20.73 c 0,0.66 0.008,1.31 0.062,1.95 -0.056,0.61 -0.062,1.21 -0.062,1.83 v 139.34 c 0,10.97 8.92,19.8 20,19.8 h 215 c 11.08,0 20,-8.83 20,-19.8 V 139.5 c 0,-10.97 -8.92,-19.81 -20,-19.81 H 49.155 l -0.003,-4.7 c 0,-11.49 -8.597,-20.764 -19.281,-20.764 z" /><path
       id="rect2396-2"
       style="fill:#000000"
       d="m 27.866,90.205 c -10.684,0 -19.281,9.361 -19.281,20.965 l -2e-4,20.94 c 0,0.66 0.0079,1.33 0.0625,1.97 -0.0559,0.61 -0.0625,1.22 -0.0625,1.84 v 140.72 c 0,11.08 8.9202,20 20,20 h 215 c 11.08,0 20,-8.92 20,-20 V 135.92 c 0,-11.08 -8.92,-20 -20,-20 h -196.43 l -0.003,-4.75 c 0,-11.604 -8.597,-20.965 -19.281,-20.965 z" /><path
       id="path3185-2"
       style="opacity:0.22261;fill:url(#radialGradient2451-7)"
       d="m 27.866,90.205 c -10.684,0 -19.281,9.361 -19.281,20.965 l -2e-4,20.94 c 0,0.66 0.0079,1.33 0.0625,1.97 -0.0559,0.61 -0.0625,1.22 -0.0625,1.84 v 140.72 c 0,11.08 8.9202,20 20,20 h 215 c 11.08,0 20,-8.92 20,-20 V 135.92 c 0,-11.08 -8.92,-20 -20,-20 h -196.43 l -0.003,-4.75 c 0,-11.604 -8.597,-20.965 -19.281,-20.965 z" /><rect
       id="rect3195-1"
       style="fill:#717171;filter:url(#filter3205-5)"
       transform="matrix(0.9972,0,0,0.94118,-296.64,-22.76)"
       height="24.285999"
       width="254.96001"
       y="147.36"
       x="307.16" /><g
       id="g3209-6"
       transform="translate(-298.57,-32.857)"><rect
         id="rect3170-8"
         style="fill:#000000"
         height="22.143"
         width="254.96001"
         y="148.08"
         x="307.16" /><rect
         id="rect3174-5"
         style="fill:#ffffff"
         transform="matrix(1,0,-0.54213,0.8403,0,0)"
         height="26.351"
         width="33.174999"
         y="176.22"
         x="620.90997" /><rect
         id="rect3176-7"
         style="fill:#ffffff"
         transform="matrix(1,0,-0.54213,0.8403,0,0)"
         height="26.351"
         width="33.174999"
         y="176.22"
         x="561.97998" /><rect
         id="rect3178-6"
         style="fill:#ffffff"
         transform="matrix(1,0,-0.54213,0.8403,0,0)"
         height="26.351"
         width="33.174999"
         y="176.22"
         x="501.62" /><rect
         id="rect3180-1"
         style="fill:#ffffff"
         transform="matrix(1,0,-0.54213,0.8403,0,0)"
         height="26.351"
         width="33.174999"
         y="176.22"
         x="442.34" /></g><rect
       id="rect3228-8"
       style="fill:#717171;filter:url(#filter3205-5)"
       transform="matrix(0.9415,-0.32862,0.31015,0.8886,-329.4,66.313)"
       height="24.285999"
       width="254.96001"
       y="147.36"
       x="307.16" /><g
       id="g3216-9"
       transform="matrix(0.93119,-0.36452,-0.36452,-0.93119,-217.8,368.28)"><rect
         id="rect3218-2"
         style="fill:#000000"
         height="22.143"
         width="254.96001"
         y="148.08"
         x="307.16" /><rect
         id="rect3220-7"
         style="fill:#ffffff"
         transform="matrix(1,0,-0.54213,0.8403,0,0)"
         height="26.351"
         width="33.174999"
         y="176.22"
         x="620.90997" /><rect
         id="rect3222-9"
         style="fill:#ffffff"
         transform="matrix(1,0,-0.54213,0.8403,0,0)"
         height="26.351"
         width="33.174999"
         y="176.22"
         x="561.97998" /><rect
         id="rect3224-5"
         style="fill:#ffffff"
         transform="matrix(1,0,-0.54213,0.8403,0,0)"
         height="26.351"
         width="33.174999"
         y="176.22"
         x="501.62" /><rect
         id="rect3226-4"
         style="fill:#ffffff"
         transform="matrix(1,0,-0.54213,0.8403,0,0)"
         height="26.351"
         width="33.174999"
         y="176.22"
         x="442.34" /></g><circle
       id="path3230-3"
       style="fill:url(#radialGradient3532-7)"
       transform="matrix(0.39583,0,0,0.39583,-14.732,-79.421)"
       cx="107.14286"
       cy="458.79074"
       r="8.5714283" /><path
       id="path3262-1"
       style="fill:none;stroke:#ffffff;stroke-width:3"
       d="m 24.286,258.43 220.71,1.43" /><path
       id="path3272-2"
       style="fill:none;stroke:#ffffff;stroke-width:3"
       d="m 81.429,258.79 v 32.86" /><path
       id="path3274-3"
       style="fill:none;stroke:#ffffff;stroke-width:3"
       d="m 178.57,258.79 v 32.14" /><path
       style="fill:#ffffff;stroke:#ffffff;stroke-width:1.65791"
       d="m 112.86374,174.45373 v 51.70701 l 66.07008,-27.495 z"
       id="path2-3" /></g></svg>
